<svg xmlns="http://www.w3.org/2000/svg" viewBox="0 0 505.303 505.367"><defs><style>.a{fill:#fcfcfc;}</style></defs><path class="a" d="M5.692,435.777l55.963-55.963c-24.31-35.553-36.6-77.084-36.6-123.837,0-63.31,22.3-116.77,66.284-158.9C134.905,55.318,190.309,34.138,256,34.138c44.632,0,85.074,10.335,120.568,30.763L435.81,5.66a8,8,0,0,1,11.317,0l59.184,59.248a8,8,0,0,1,0,11.311l-55.8,55.8c24.2,35.478,36.435,77.05,36.435,123.953,0,63.7-22.309,117.279-66.306,159.243C376.976,456.792,321.591,477.861,256,477.861c-44.584,0-84.994-10.365-120.474-30.855L76.191,506.34a8,8,0,0,1-11.317,0L5.689,447.088A8,8,0,0,1,5.692,435.777ZM228.1,354.428a114.356,114.356,0,0,0,27.9,3.255c29.869,0,53.765-9.319,73.055-28.491,19.282-19.124,28.644-43.065,28.644-73.215a115.075,115.075,0,0,0-3.232-27.913ZM256,154.279c-29.861,0-53.763,9.32-73.071,28.493-19.265,19.147-28.635,43.1-28.635,73.205a115.316,115.316,0,0,0,3.236,27.962L283.918,157.551A114.031,114.031,0,0,0,256,154.279Z" transform="translate(-3.348 -3.317)"/><path d="M467.212,67.729,444.287,44.78a4,4,0,0,0-5.659,0l-58.093,58.094C345.882,77.315,304.654,63.792,256,63.792q-87.057,0-144.153,54.705Q54.685,173.244,54.7,255.977q0,74.541,46.475,126.251L44.791,438.616a4,4,0,0,0,0,5.655L67.714,467.22a4,4,0,0,0,5.659,0l58.214-58.215c34.615,25.617,75.79,39.2,124.413,39.2q87.012,0,144.17-54.447,57.126-54.485,57.119-137.784Q457.289,181.1,411,129.6L467.21,73.384A4,4,0,0,0,467.212,67.729ZM124.64,255.977q0-57.093,37.394-94.247,37.344-37.083,93.966-37.1c30.341,0,56.338,8.405,78.387,24.4L148.975,334.432C133.007,312.5,124.64,286.484,124.64,255.977Zm262.713,0q0,57.162-37.394,94.248Q312.581,387.376,256,387.338c-30.34,0-56.337-8.375-78.378-24.365l185.4-185.4C378.986,199.511,387.353,225.516,387.353,255.977Z" transform="translate(-3.348 -3.317)"/></svg>