<svg xmlns="http://www.w3.org/2000/svg" version="1.1" xmlns:xlink="http://www.w3.org/1999/xlink" xmlns:svgjs="http://svgjs.dev/svgjs" width="506.757" height="506.837"><svg xmlns="http://www.w3.org/2000/svg" viewBox="0 0 506.757 506.837"><defs><style>.a{fill:#fcfcfc;}</style></defs><path class="a" d="M77.076,509.418a17.253,17.253,0,0,1-12.286-5.093l-57.1-57.159A17.388,17.388,0,0,1,7.7,422.614l48.44-48.44c-21.631-34.393-32.589-74.111-32.589-118.2,0-63.811,22.516-117.729,66.921-160.259,43.89-42.07,99.583-63.4,165.53-63.4,41.987,0,80.513,9.2,114.631,27.366L422.645,7.667a17.369,17.369,0,0,1,24.566.007l57.1,57.159a17.387,17.387,0,0,1-.006,24.551l-48.291,48.292c21.526,34.334,32.433,74.091,32.433,118.3,0,64.195-22.527,118.231-66.956,160.607-43.975,41.87-99.651,63.1-165.488,63.1-41.946,0-80.443-9.231-114.548-27.448l-52.1,52.1A17.248,17.248,0,0,1,77.076,509.418Z" transform="translate(-2.621 -2.582)"></path><path d="M459.762,74.369l-22.116-22.14a3.859,3.859,0,0,0-5.459,0l-56.045,56.044c-33.43-24.655-73.2-37.7-120.142-37.7q-83.987,0-139.069,52.776Q61.785,176.162,61.8,255.978q0,71.911,44.835,121.8l-54.4,54.4a3.859,3.859,0,0,0,0,5.456l22.116,22.14a3.859,3.859,0,0,0,5.459,0l56.161-56.162c33.394,24.714,73.117,37.818,120.025,37.818q83.943,0,139.084-52.526,55.113-52.563,55.105-132.924,0-72.241-44.659-121.922l54.23-54.231A3.859,3.859,0,0,0,459.762,74.369ZM129.273,255.978q0-55.08,36.075-90.923,36.027-35.775,90.652-35.8c29.27,0,54.351,8.109,75.622,23.535L152.749,331.665C137.345,310.5,129.273,285.409,129.273,255.978Zm253.447,0q0,55.144-36.075,90.923-36.06,35.841-90.645,35.8c-29.27,0-54.35-8.079-75.614-23.506L359.251,180.334C374.648,201.5,382.72,226.591,382.72,255.978Z" transform="translate(-2.621 -2.582)"></path></svg><style>@media (prefers-color-scheme: light) { :root { filter: none; } }
@media (prefers-color-scheme: dark) { :root { filter: none; } }
</style></svg>