<svg
   version="1.1"
   viewBox="0 0 499.99344 30.731001"
   xmlns="http://www.w3.org/2000/svg"
   xmlns:svg="http://www.w3.org/2000/svg">
  <defs
     id="defs1">
    <clipPath
       clipPathUnits="userSpaceOnUse"
       id="clipPath2">
      <path
         d="M 0,1035.198 H 10401.937 V 0 H 0 Z"
         transform="translate(-626.94172,-364.47711)"
         id="path2" />
    </clipPath>
    <clipPath
       clipPathUnits="userSpaceOnUse"
       id="clipPath4">
      <path
         d="M 0,1035.198 H 10401.937 V 0 H 0 Z"
         transform="translate(-2244.2368,-488.81331)"
         id="path4" />
    </clipPath>
    <clipPath
       clipPathUnits="userSpaceOnUse"
       id="clipPath6">
      <path
         d="M 0,1035.198 H 10401.937 V 0 H 0 Z"
         transform="translate(-3339.1043,-252.23518)"
         id="path6" />
    </clipPath>
    <clipPath
       clipPathUnits="userSpaceOnUse"
       id="clipPath8">
      <path
         d="M 0,1035.198 H 10401.937 V 0 H 0 Z"
         transform="translate(0,2.5000001e-5)"
         id="path8" />
    </clipPath>
    <clipPath
       clipPathUnits="userSpaceOnUse"
       id="clipPath10">
      <path
         d="M 0,1035.198 H 10401.937 V 0 H 0 Z"
         transform="translate(-5032.2662,-252.23518)"
         id="path10" />
    </clipPath>
    <clipPath
       clipPathUnits="userSpaceOnUse"
       id="clipPath12">
      <path
         d="M 0,1035.198 H 10401.937 V 0 H 0 Z"
         transform="translate(-6616.2097,-783.02402)"
         id="path12" />
    </clipPath>
    <clipPath
       clipPathUnits="userSpaceOnUse"
       id="clipPath14">
      <path
         d="M 0,1035.198 H 10401.937 V 0 H 0 Z"
         transform="translate(-8097.013,-488.81331)"
         id="path14" />
    </clipPath>
    <clipPath
       clipPathUnits="userSpaceOnUse"
       id="clipPath16">
      <path
         d="M 0,1035.198 H 10401.937 V 0 H 0 Z"
         transform="translate(-9191.911,-252.23518)"
         id="path16" />
    </clipPath>
    <clipPath
       clipPathUnits="userSpaceOnUse"
       id="clipPath18">
      <path
         d="M 0,1035.198 H 10401.937 V 0 H 0 Z"
         transform="translate(0,2.5000001e-5)"
         id="path18" />
    </clipPath>
    <clipPath
       clipPathUnits="userSpaceOnUse"
       id="clipPath20">
      <path
         d="M 0,1035.198 H 10401.937 V 0 H 0 Z"
         transform="translate(-1632.3696,-517.63161)"
         id="path20" />
    </clipPath>
    <clipPath
       clipPathUnits="userSpaceOnUse"
       id="clipPath22">
      <path
         d="M 0,1035.198 H 10401.937 V 0 H 0 Z"
         transform="translate(-7485.1438,-517.63161)"
         id="path22" />
    </clipPath>
  </defs>
  <g
     id="layer-MC0"
     transform="translate(-9.048314e-4,-0.00187857)">
    <g
       id="g22"
       transform="matrix(0.03791211,0,0,0.03791211,-12.908609,-10.797078)"
       style="stroke-width:26.3768">
      <path
         id="path1"
         d="m 0,0 c 123.318,9.071 184.992,60.656 184.992,154.633 0,46.526 -15.796,82.685 -47.389,108.478 C 106.01,288.842 60.132,303.775 0,307.848 Z m -275.236,153.893 c 0,-45.97 15.765,-81.883 47.389,-107.676 C -196.284,20.424 -150.653,4.998 -90.984,0 V 307.848 C -213.84,298.715 -275.236,247.438 -275.236,153.893 M 206.99,318.831 c 48.532,-40.232 72.782,-95.149 72.782,-164.938 0,-69.727 -24.25,-124.83 -72.782,-165.308 C 158.459,-51.832 89.473,-73.861 0,-77.378 v -56.091 h -90.984 v 56.091 c -89.473,4.566 -158.614,26.78 -207.392,66.765 -48.778,39.923 -73.182,94.779 -73.182,164.506 0,69.789 24.404,124.706 73.182,164.938 48.778,40.17 117.919,62.508 207.392,67.074 v 53.868 H 0 v -53.868 c 89.473,-4.566 158.459,-26.904 206.99,-67.074"
         style="fill:currentColor;fill-opacity:1;fill-rule:nonzero;stroke:none;stroke-width:26.3768"
         transform="matrix(1.3333333,0,0,-1.3333333,835.92227,894.2972)"
         clip-path="url(#clipPath2)" />
      <path
         id="path3"
         d="m 0,0 c 42.947,0 75.558,9.071 97.803,27.274 22.245,18.203 33.382,44.242 33.382,78.119 0,33.876 -11.137,59.915 -33.382,78.118 C 75.558,201.653 42.947,210.785 0,210.785 H -115.265 V 0 Z m 4.535,294.211 c 69.758,0 124.861,-16.846 165.309,-50.475 C 210.261,210.168 230.5,164.013 230.5,105.393 230.5,47.266 210.261,1.234 169.844,-32.642 129.396,-66.457 74.293,-83.426 4.535,-83.426 h -119.8 v -153.152 h -98.575 v 530.789 z"
         style="fill:currentColor;fill-opacity:1;fill-rule:nonzero;stroke:none;stroke-width:26.3768"
         transform="matrix(1.3333333,0,0,-1.3333333,2992.3157,728.5156)"
         clip-path="url(#clipPath4)" />
      <path
         id="path5"
         d="M 0,0 H -94.008 L -94.779,351.843 -269.158,60.656 h -43.996 L -487.533,347.277 V 0 h -93.268 v 530.789 h 81.143 l 210.013,-351.103 207.762,351.103 h 80.371 z"
         style="fill:currentColor;fill-opacity:1;fill-rule:nonzero;stroke:none;stroke-width:26.3768"
         transform="matrix(1.3333333,0,0,-1.3333333,4452.1389,1043.9531)"
         clip-path="url(#clipPath6)" />
      <path
         id="path7"
         d="m 4196.684,783.024 h 97.063 V 252.235 h -97.063 z M 3901.733,328.071 c 38.412,0 67.968,8.824 88.701,26.533 20.733,17.71 31.1,43.441 31.1,77.317 0,64.235 -39.954,96.322 -119.801,96.322 H 3775.114 V 328.071 Z m 20.455,275.206 c 63.711,0 112.612,-14.254 146.735,-42.824 34.123,-28.569 51.185,-70.899 51.185,-126.989 0,-58.682 -18.728,-103.48 -56.121,-134.58 -37.393,-31.099 -89.966,-46.649 -157.719,-46.649 h -228.217 v 530.789 h 97.063 V 603.277 Z"
         style="fill:currentColor;fill-opacity:1;fill-rule:nonzero;stroke:none;stroke-width:26.3768"
         transform="matrix(1.3333333,0,0,-1.3333333,0,1380.2667)"
         clip-path="url(#clipPath8)" />
      <path
         id="path9"
         d="M 0,0 V 530.789 H 97.063 V 153.893 l 285.078,376.896 h 91.755 V 0 H 376.834 V 376.094 L 91.756,0 Z"
         style="fill:currentColor;fill-opacity:1;fill-rule:nonzero;stroke:none;stroke-width:26.3768"
         transform="matrix(1.3333333,0,0,-1.3333333,6709.6881,1043.9531)"
         clip-path="url(#clipPath10)" />
      <path
         id="path11"
         d="M 0,0 H 98.574 V -530.789 H 0 v 227.446 H -274.496 V -530.789 H -373.07 V 0 h 98.574 V -219.177 H 0 Z"
         style="fill:currentColor;fill-opacity:1;fill-rule:nonzero;stroke:none;stroke-width:26.3768"
         transform="matrix(1.3333333,0,0,-1.3333333,8821.6127,336.23467)"
         clip-path="url(#clipPath12)" />
      <path
         id="path13"
         d="m 0,0 c 42.947,0 75.558,9.071 97.803,27.274 22.245,18.203 33.383,44.242 33.383,78.119 0,33.876 -11.138,59.915 -33.383,78.118 C 75.558,201.653 42.947,210.785 0,210.785 H -115.266 V 0 Z m 4.535,294.211 c 69.758,0 124.861,-16.846 165.309,-50.475 C 210.261,210.168 230.5,164.013 230.5,105.393 230.5,47.266 210.261,1.234 169.844,-32.642 129.396,-66.457 74.293,-83.426 4.535,-83.426 h -119.801 v -153.152 h -98.574 v 530.789 z"
         style="fill:currentColor;fill-opacity:1;fill-rule:nonzero;stroke:none;stroke-width:26.3768"
         transform="matrix(1.3333333,0,0,-1.3333333,10796.017,728.5156)"
         clip-path="url(#clipPath14)" />
      <path
         id="path15"
         d="M 0,0 H -94.008 L -94.779,351.843 -269.158,60.656 h -43.996 L -487.533,347.277 V 0 h -93.268 v 530.789 h 81.142 l 210.014,-351.103 207.762,351.103 h 80.371 z"
         style="fill:currentColor;fill-opacity:1;fill-rule:nonzero;stroke:none;stroke-width:26.3768"
         transform="matrix(1.3333333,0,0,-1.3333333,12255.881,1043.9531)"
         clip-path="url(#clipPath16)" />
      <path
         id="path17"
         d="m 10049.49,783.024 h 97.063 V 252.235 h -97.063 z M 9754.539,328.071 c 38.412,0 67.969,8.824 88.702,26.533 20.733,17.71 31.099,43.441 31.099,77.317 0,64.235 -39.954,96.322 -119.801,96.322 H 9627.92 V 328.071 Z m 20.456,275.206 c 63.71,0 112.611,-14.254 146.734,-42.824 34.124,-28.569 51.185,-70.899 51.185,-126.989 0,-58.682 -18.727,-103.48 -56.12,-134.58 -37.394,-31.099 -89.967,-46.649 -157.719,-46.649 h -228.218 v 530.789 h 97.063 V 603.277 Z"
         style="fill:currentColor;fill-opacity:1;fill-rule:nonzero;stroke:none;stroke-width:26.3768"
         transform="matrix(1.3333333,0,0,-1.3333333,0,1380.2667)"
         clip-path="url(#clipPath18)" />
      <path
         id="path19"
         d="m 0,0 c 0,-54.115 -17.704,-98.732 -53.102,-133.839 -35.387,-35.171 -79.842,-52.703 -133.429,-52.703 -43.085,0 -80.003,11.893 -111.304,34.6 L -34.546,111.347 C -11.882,80.187 0,43.258 0,0 m -373.072,0 c 0,54.051 17.715,98.667 53.102,133.839 35.354,35.106 79.841,52.692 133.439,52.692 43.086,0 80.004,-11.936 111.315,-34.643 l -263.3,-263.3 C -361.19,-80.262 -373.072,-43.323 -373.072,0 M 117.417,263.31 76.833,303.937 -9.682,217.422 c -49.21,36.292 -107.757,55.495 -176.849,55.495 -82.418,0 -150.626,-25.845 -204.709,-77.685 C -445.356,143.402 -472.386,78.3 -472.386,0 c 0,-70.569 22.125,-130.28 65.997,-179.285 l -84.09,-84.09 40.584,-40.627 86.688,86.688 c 49.156,-36.379 107.628,-55.668 176.676,-55.668 82.376,0 150.616,25.791 204.731,77.319 C 72.283,-144.082 99.314,-78.86 99.314,0 c 0,70.892 -22.038,130.658 -65.738,179.468 z"
         style="fill:currentColor;fill-opacity:1;fill-rule:nonzero;stroke:none;stroke-width:26.3768"
         transform="matrix(1.3333333,0,0,-1.3333333,2176.4927,690.0912)"
         clip-path="url(#clipPath20)" />
      <path
         id="path21"
         d="m 0,0 c 0,-54.115 -17.704,-98.732 -53.091,-133.839 -35.398,-35.171 -79.852,-52.703 -133.44,-52.703 -43.085,0 -80.003,11.893 -111.293,34.611 L -34.546,111.347 C -11.882,80.187 0,43.258 0,0 m -373.072,0 c 0,54.051 17.715,98.667 53.102,133.839 35.354,35.106 79.842,52.692 133.439,52.692 43.096,0 80.004,-11.936 111.315,-34.643 L -338.504,-111.401 C -361.19,-80.262 -373.072,-43.312 -373.072,0 M 117.417,263.31 76.833,303.937 -9.682,217.422 c -49.21,36.292 -107.756,55.495 -176.849,55.495 -82.407,0 -150.626,-25.845 -204.709,-77.685 C -445.355,143.402 -472.386,78.3 -472.386,0 c 0,-70.569 22.125,-130.28 65.997,-179.285 l -84.09,-84.09 40.584,-40.627 86.688,86.688 c 49.156,-36.379 107.628,-55.668 176.676,-55.668 82.376,0 150.616,25.791 204.732,77.319 C 72.284,-144.082 99.314,-78.86 99.314,0 c 0,70.892 -22.038,130.658 -65.738,179.468 z"
         style="fill:currentColor;fill-opacity:1;fill-rule:nonzero;stroke:none;stroke-width:26.3768"
         transform="matrix(1.3333333,0,0,-1.3333333,9980.1915,690.0912)"
         clip-path="url(#clipPath22)" />
    </g>
  </g>
</svg>
