<svg xmlns="http://www.w3.org/2000/svg" viewBox="0 0 200 200" fill="none"> <path d="M70.525 101.75C70.525 97.9502 67.885 95.6802 63.23 95.6802C61.33 95.6802 60.045 95.8652 59.37 96.0452V108.25C60.17 108.43 61.15 108.495 62.495 108.495C67.46 108.495 70.525 105.98 70.525 101.75ZM99.355 95.8002C97.27 95.8002 95.92 95.9852 95.12 96.1702V123.21C95.92 123.395 97.205 123.395 98.37 123.395C106.83 123.455 112.35 118.795 112.35 108.925C112.415 100.34 107.385 95.8002 99.355 95.8002Z" fill="black"></path> <path d="M154.59 79.9152H151.2V63.5602C151.197 63.4563 151.187 63.3527 151.17 63.2502C151.175 62.5924 150.943 61.9548 150.515 61.4552L123.3 30.3752L123.28 30.3552C122.934 29.9801 122.494 29.7055 122.005 29.5602L121.855 29.5102C121.647 29.4584 121.434 29.4315 121.22 29.4302H54.335C51.28 29.4302 48.8 31.9152 48.8 34.9652V79.9152H45.41C41.04 79.9152 37.5 83.4552 37.5 87.8252V128.965C37.5 133.33 41.045 136.875 45.41 136.875H48.8V165.04C48.8 168.09 51.28 170.575 54.335 170.575H145.665C148.715 170.575 151.2 168.09 151.2 165.04V136.875H154.59C158.96 136.875 162.5 133.33 162.5 128.965V87.8252C162.5 83.4552 158.955 79.9152 154.59 79.9152ZM54.335 34.9652H118.45V63.2852C118.45 64.8152 119.69 66.0502 121.22 66.0502H145.67V79.9152H54.335V34.9652ZM122.285 108.615C122.285 116.525 119.405 121.985 115.41 125.355C111.06 128.97 104.44 130.69 96.345 130.69C91.5 130.69 88.07 130.38 85.735 130.08V89.4852C89.17 88.9352 93.645 88.6302 98.37 88.6302C106.215 88.6302 111.305 90.0402 115.29 93.0452C119.585 96.2302 122.285 101.32 122.285 108.615ZM50.105 130.265V89.4852C52.985 88.9952 57.035 88.6302 62.735 88.6302C68.5 88.6302 72.61 89.7352 75.365 91.9402C78 94.0252 79.775 97.4602 79.775 101.505C79.775 105.555 78.43 108.985 75.975 111.315C72.785 114.32 68.065 115.67 62.545 115.67C61.32 115.67 60.215 115.61 59.36 115.485V130.265H50.105ZM145.665 163.54H54.335V136.875H145.665V163.54ZM153.685 96.6002H137.8V106.045H152.64V113.65H137.8V130.265H128.425V88.9352H153.685V96.6002Z" fill="black"></path> </svg> 