<?xml version="1.0" encoding="UTF-8"?> <svg xmlns="http://www.w3.org/2000/svg" viewBox="0 0 126 126" fill="none"> <path d="M125 62.8V1" stroke="black" stroke-width="0.5154" stroke-miterlimit="10" stroke-linecap="round"></path> <path d="M124.9 1H63V62.9H124.9V1Z" fill="white"></path> <path d="M99.9004 35.6L98.9004 36.5" stroke="black" stroke-width="0.2577" stroke-miterlimit="10" stroke-linecap="round"></path> <path d="M99.9004 9.90002L98.9004 10.8" stroke="black" stroke-width="0.2577" stroke-miterlimit="10" stroke-linecap="round"></path> <path d="M74.1002 35.6L73.2002 36.5" stroke="black" stroke-width="0.2577" stroke-miterlimit="10" stroke-linecap="round"></path> <path d="M74.1002 9.90002L73.2002 10.8" stroke="black" stroke-width="0.2577" stroke-miterlimit="10" stroke-linecap="round"></path> <path d="M99.9004 48.5L98.9004 49.4" stroke="black" stroke-width="0.2577" stroke-miterlimit="10" stroke-linecap="round"></path> <path d="M99.9004 22.7001L98.9004 23.7001" stroke="black" stroke-width="0.2577" stroke-miterlimit="10" stroke-linecap="round"></path> <path d="M74.1002 48.5L73.2002 49.4" stroke="black" stroke-width="0.2577" stroke-miterlimit="10" stroke-linecap="round"></path> <path d="M74.1002 22.7001L73.2002 23.7001" stroke="black" stroke-width="0.2577" stroke-miterlimit="10" stroke-linecap="round"></path> <path d="M112.7 48.5L111.8 49.4" stroke="black" stroke-width="0.2577" stroke-miterlimit="10" stroke-linecap="round"></path> <path d="M112.7 22.7001L111.8 23.7001" stroke="black" stroke-width="0.2577" stroke-miterlimit="10" stroke-linecap="round"></path> <path d="M87.0001 48.5L86.1001 49.4" stroke="black" stroke-width="0.2577" stroke-miterlimit="10" stroke-linecap="round"></path> <path d="M87.0001 22.7001L86.1001 23.7001" stroke="black" stroke-width="0.2577" stroke-miterlimit="10" stroke-linecap="round"></path> <path d="M107.2 41.2001L99.9004 48.5001" stroke="black" stroke-width="0.2577" stroke-miterlimit="10" stroke-linecap="round"></path> <path d="M107.2 15.4L99.9004 22.7" stroke="black" stroke-width="0.2577" stroke-miterlimit="10" stroke-linecap="round"></path> <path d="M81.4001 41.2001L74.1001 48.5001" stroke="black" stroke-width="0.2577" stroke-miterlimit="10" stroke-linecap="round"></path> <path d="M81.4001 15.4L74.1001 22.7" stroke="black" stroke-width="0.2577" stroke-miterlimit="10" stroke-linecap="round"></path> <path d="M107.2 54L99.9004 61.4" stroke="black" stroke-width="0.2577" stroke-miterlimit="10" stroke-linecap="round"></path> <path d="M107.2 28.3L99.9004 35.6001" stroke="black" stroke-width="0.2577" stroke-miterlimit="10" stroke-linecap="round"></path> <path d="M81.4001 54L74.1001 61.4" stroke="black" stroke-width="0.2577" stroke-miterlimit="10" stroke-linecap="round"></path> <path d="M107.2 2.5L99.9004 9.89999" stroke="black" stroke-width="0.2577" stroke-miterlimit="10" stroke-linecap="round"></path> <path d="M81.4001 28.3L74.1001 35.6001" stroke="black" stroke-width="0.2577" stroke-miterlimit="10" stroke-linecap="round"></path> <path d="M81.4001 2.5L74.1001 9.89999" stroke="black" stroke-width="0.2577" stroke-miterlimit="10" stroke-linecap="round"></path> <path d="M120.1 41.2001L112.7 48.5001" stroke="black" stroke-width="0.2577" stroke-miterlimit="10" stroke-linecap="round"></path> <path d="M120.1 15.4L112.7 22.7" stroke="black" stroke-width="0.2577" stroke-miterlimit="10" stroke-linecap="round"></path> <path d="M94.3 41.2001L87 48.5001" stroke="black" stroke-width="0.2577" stroke-miterlimit="10" stroke-linecap="round"></path> <path d="M94.3 15.4L87 22.7" stroke="black" stroke-width="0.2577" stroke-miterlimit="10" stroke-linecap="round"></path> <path d="M68.6 41.2001L63 46.7001" stroke="black" stroke-width="0.2577" stroke-miterlimit="10" stroke-linecap="round"></path> <path d="M68.6 15.4L63 20.9" stroke="black" stroke-width="0.2577" stroke-miterlimit="10" stroke-linecap="round"></path> <path d="M120.1 54L111.8 62.3" stroke="black" stroke-width="0.2577" stroke-miterlimit="10" stroke-linecap="round"></path> <path d="M120.1 28.3L111.8 36.5001" stroke="black" stroke-width="0.2577" stroke-miterlimit="10" stroke-linecap="round"></path> <path d="M94.3001 54L86.1001 62.3" stroke="black" stroke-width="0.2577" stroke-miterlimit="10" stroke-linecap="round"></path> <path d="M120.1 2.5L111.8 10.8" stroke="black" stroke-width="0.2577" stroke-miterlimit="10" stroke-linecap="round"></path> <path d="M94.3001 28.3L86.1001 36.5001" stroke="black" stroke-width="0.2577" stroke-miterlimit="10" stroke-linecap="round"></path> <path d="M68.6 54L63 59.5" stroke="black" stroke-width="0.2577" stroke-miterlimit="10" stroke-linecap="round"></path> <path d="M94.3001 2.5L86.1001 10.8" stroke="black" stroke-width="0.2577" stroke-miterlimit="10" stroke-linecap="round"></path> <path d="M68.6 28.3L63 33.8" stroke="black" stroke-width="0.2577" stroke-miterlimit="10" stroke-linecap="round"></path> <path d="M68.6 2.5L63 8" stroke="black" stroke-width="0.2577" stroke-miterlimit="10" stroke-linecap="round"></path> <path d="M124.9 1H63" stroke="black" stroke-width="0.5154" stroke-miterlimit="10" stroke-linecap="round"></path> <path d="M63 1V62.8" stroke="black" stroke-width="0.5154" stroke-miterlimit="10" stroke-linecap="round"></path> <path d="M124.9 63H63V124.9H124.9V63Z" fill="white"></path> <path d="M63 79.5L79.5 63" stroke="black" stroke-width="0.2577" stroke-miterlimit="10" stroke-linecap="round"></path> <path d="M63 96.9L96.9 63" stroke="black" stroke-width="0.2577" stroke-miterlimit="10" stroke-linecap="round"></path> <path d="M63 114.2L114.2 63" stroke="black" stroke-width="0.2577" stroke-miterlimit="10" stroke-linecap="round"></path> <path d="M69.7002 124.8L124.8 69.7001" stroke="black" stroke-width="0.2577" stroke-miterlimit="10" stroke-linecap="round"></path> <path d="M87.1001 124.8L124.8 87.1" stroke="black" stroke-width="0.2577" stroke-miterlimit="10" stroke-linecap="round"></path> <path d="M104.4 124.8L124.8 104.4" stroke="black" stroke-width="0.2577" stroke-miterlimit="10" stroke-linecap="round"></path> <path d="M121.8 124.8L124.8 121.8" stroke="black" stroke-width="0.2577" stroke-miterlimit="10" stroke-linecap="round"></path> <path d="M63 67.9L67.9 63" stroke="black" stroke-width="0.2577" stroke-miterlimit="10" stroke-linecap="round"></path> <path d="M63 85.3L85.3 63" stroke="black" stroke-width="0.2577" stroke-miterlimit="10" stroke-linecap="round"></path> <path d="M63 102.7L102.6 63" stroke="black" stroke-width="0.2577" stroke-miterlimit="10" stroke-linecap="round"></path> <path d="M63 120L120 63" stroke="black" stroke-width="0.2577" stroke-miterlimit="10" stroke-linecap="round"></path> <path d="M75.5 124.8L124.8 75.5" stroke="black" stroke-width="0.2577" stroke-miterlimit="10" stroke-linecap="round"></path> <path d="M92.9004 124.8L124.8 92.9" stroke="black" stroke-width="0.2577" stroke-miterlimit="10" stroke-linecap="round"></path> <path d="M110.2 124.8L124.8 110.2" stroke="black" stroke-width="0.2577" stroke-miterlimit="10" stroke-linecap="round"></path> <path d="M124.8 63H63" stroke="black" stroke-width="0.5154" stroke-miterlimit="10" stroke-linecap="round"></path> <path d="M63 63V124.8" stroke="black" stroke-width="0.5154" stroke-miterlimit="10" stroke-linecap="round"></path> <path d="M63 124.8H124.8" stroke="black" stroke-width="0.5154" stroke-miterlimit="10" stroke-linecap="round"></path> <path d="M124.8 124.8V63" stroke="black" stroke-width="0.5154" stroke-miterlimit="10" stroke-linecap="round"></path> <path d="M4.60001 63.2L4.5 63" stroke="black" stroke-width="0.2577" stroke-miterlimit="10" stroke-linecap="round"></path> <path d="M15.2998 63.2V63" stroke="black" stroke-width="0.2577" stroke-miterlimit="10" stroke-linecap="round"></path> <path d="M26.1 63.2L26 63" stroke="black" stroke-width="0.2577" stroke-miterlimit="10" stroke-linecap="round"></path> <path d="M36.8002 63.2L36.7002 63" stroke="black" stroke-width="0.2577" stroke-miterlimit="10" stroke-linecap="round"></path> <path d="M47.5 63.2V63" stroke="black" stroke-width="0.2577" stroke-miterlimit="10" stroke-linecap="round"></path> <path d="M58.3002 63.2L58.2002 63" stroke="black" stroke-width="0.2577" stroke-miterlimit="10" stroke-linecap="round"></path> <path d="M8.2998 63.2V63" stroke="black" stroke-width="0.2577" stroke-miterlimit="10" stroke-linecap="round"></path> <path d="M19 63.2V63" stroke="black" stroke-width="0.2577" stroke-miterlimit="10" stroke-linecap="round"></path> <path d="M29.7002 63.2V63" stroke="black" stroke-width="0.2577" stroke-miterlimit="10" stroke-linecap="round"></path> <path d="M40.5 63.2V63" stroke="black" stroke-width="0.2577" stroke-miterlimit="10" stroke-linecap="round"></path> <path d="M51.2002 63.2V63" stroke="black" stroke-width="0.2577" stroke-miterlimit="10" stroke-linecap="round"></path> <path d="M61.8999 63.2V63" stroke="black" stroke-width="0.2577" stroke-miterlimit="10" stroke-linecap="round"></path> <path d="M63 63.1H1V125.1H63V63.1Z" fill="white"></path> <path d="M4.00467 125.1L3.604 123.998" stroke="black" stroke-width="0.2577" stroke-miterlimit="10" stroke-linecap="round"></path> <path d="M4.90612 117.087L3.604 113.181" stroke="black" stroke-width="0.2577" stroke-miterlimit="10" stroke-linecap="round"></path> <path d="M4.90612 106.37L3.604 102.463" stroke="black" stroke-width="0.2577" stroke-miterlimit="10" stroke-linecap="round"></path> <path d="M14.7219 125.1L14.4214 123.998" stroke="black" stroke-width="0.2577" stroke-miterlimit="10" stroke-linecap="round"></path> <path d="M4.90612 95.5522L3.604 91.7461" stroke="black" stroke-width="0.2577" stroke-miterlimit="10" stroke-linecap="round"></path> <path d="M15.6233 117.087L14.4214 113.181" stroke="black" stroke-width="0.2577" stroke-miterlimit="10" stroke-linecap="round"></path> <path d="M4.90612 84.835L3.604 80.9287" stroke="black" stroke-width="0.2577" stroke-miterlimit="10" stroke-linecap="round"></path> <path d="M15.6233 106.37L14.4214 102.463" stroke="black" stroke-width="0.2577" stroke-miterlimit="10" stroke-linecap="round"></path> <path d="M4.90612 74.1177L3.604 70.2114" stroke="black" stroke-width="0.2577" stroke-miterlimit="10" stroke-linecap="round"></path> <path d="M25.5393 125.1L25.1387 123.998" stroke="black" stroke-width="0.2577" stroke-miterlimit="10" stroke-linecap="round"></path> <path d="M15.6233 95.5522L14.4214 91.7461" stroke="black" stroke-width="0.2577" stroke-miterlimit="10" stroke-linecap="round"></path> <path d="M26.4408 117.087L25.1387 113.181" stroke="black" stroke-width="0.2577" stroke-miterlimit="10" stroke-linecap="round"></path> <path d="M15.6233 84.835L14.4214 80.9287" stroke="black" stroke-width="0.2577" stroke-miterlimit="10" stroke-linecap="round"></path> <path d="M26.4408 106.37L25.1387 102.463" stroke="black" stroke-width="0.2577" stroke-miterlimit="10" stroke-linecap="round"></path> <path d="M15.6233 74.1177L14.4214 70.2114" stroke="black" stroke-width="0.2577" stroke-miterlimit="10" stroke-linecap="round"></path> <path d="M36.2566 125.1L35.856 123.998" stroke="black" stroke-width="0.2577" stroke-miterlimit="10" stroke-linecap="round"></path> <path d="M26.4408 95.5522L25.1387 91.7461" stroke="black" stroke-width="0.2577" stroke-miterlimit="10" stroke-linecap="round"></path> <path d="M37.158 117.087L35.856 113.181" stroke="black" stroke-width="0.2577" stroke-miterlimit="10" stroke-linecap="round"></path> <path d="M26.4408 84.835L25.1387 80.9287" stroke="black" stroke-width="0.2577" stroke-miterlimit="10" stroke-linecap="round"></path> <path d="M37.158 106.37L35.856 102.463" stroke="black" stroke-width="0.2577" stroke-miterlimit="10" stroke-linecap="round"></path> <path d="M26.4408 74.1177L25.1387 70.2114" stroke="black" stroke-width="0.2577" stroke-miterlimit="10" stroke-linecap="round"></path> <path d="M46.9738 125.1L46.6733 123.998" stroke="black" stroke-width="0.2577" stroke-miterlimit="10" stroke-linecap="round"></path> <path d="M37.158 95.5522L35.856 91.7461" stroke="black" stroke-width="0.2577" stroke-miterlimit="10" stroke-linecap="round"></path> <path d="M47.8753 117.087L46.6733 113.181" stroke="black" stroke-width="0.2577" stroke-miterlimit="10" stroke-linecap="round"></path> <path d="M37.158 84.835L35.856 80.9287" stroke="black" stroke-width="0.2577" stroke-miterlimit="10" stroke-linecap="round"></path> <path d="M47.8753 106.37L46.6733 102.463" stroke="black" stroke-width="0.2577" stroke-miterlimit="10" stroke-linecap="round"></path> <path d="M37.158 74.1177L35.856 70.2114" stroke="black" stroke-width="0.2577" stroke-miterlimit="10" stroke-linecap="round"></path> <path d="M57.7913 125.1L57.3906 123.998" stroke="black" stroke-width="0.2577" stroke-miterlimit="10" stroke-linecap="round"></path> <path d="M47.8753 95.5522L46.6733 91.7461" stroke="black" stroke-width="0.2577" stroke-miterlimit="10" stroke-linecap="round"></path> <path d="M58.6927 117.087L57.3906 113.181" stroke="black" stroke-width="0.2577" stroke-miterlimit="10" stroke-linecap="round"></path> <path d="M47.8753 84.835L46.6733 80.9287" stroke="black" stroke-width="0.2577" stroke-miterlimit="10" stroke-linecap="round"></path> <path d="M58.6927 106.37L57.3906 102.463" stroke="black" stroke-width="0.2577" stroke-miterlimit="10" stroke-linecap="round"></path> <path d="M47.8753 74.1177L46.6733 70.2114" stroke="black" stroke-width="0.2577" stroke-miterlimit="10" stroke-linecap="round"></path> <path d="M58.6927 95.5522L57.3906 91.7461" stroke="black" stroke-width="0.2577" stroke-miterlimit="10" stroke-linecap="round"></path> <path d="M58.6927 84.835L57.3906 80.9287" stroke="black" stroke-width="0.2577" stroke-miterlimit="10" stroke-linecap="round"></path> <path d="M58.6927 74.1177L57.3906 70.2114" stroke="black" stroke-width="0.2577" stroke-miterlimit="10" stroke-linecap="round"></path> <path d="M3.60399 123.998L2.10156 122.696" stroke="black" stroke-width="0.2577" stroke-miterlimit="10" stroke-linecap="round"></path> <path d="M14.3213 123.998L12.8188 122.696" stroke="black" stroke-width="0.2577" stroke-miterlimit="10" stroke-linecap="round"></path> <path d="M3.60399 113.181L2.10156 111.879" stroke="black" stroke-width="0.2577" stroke-miterlimit="10" stroke-linecap="round"></path> <path d="M25.1387 123.998L23.6362 122.696" stroke="black" stroke-width="0.2577" stroke-miterlimit="10" stroke-linecap="round"></path> <path d="M14.3213 113.181L12.8188 111.879" stroke="black" stroke-width="0.2577" stroke-miterlimit="10" stroke-linecap="round"></path> <path d="M3.60399 102.463L2.10156 101.161" stroke="black" stroke-width="0.2577" stroke-miterlimit="10" stroke-linecap="round"></path> <path d="M35.8559 123.998L34.3535 122.696" stroke="black" stroke-width="0.2577" stroke-miterlimit="10" stroke-linecap="round"></path> <path d="M25.1387 113.181L23.6362 111.879" stroke="black" stroke-width="0.2577" stroke-miterlimit="10" stroke-linecap="round"></path> <path d="M14.3213 102.463L12.8188 101.161" stroke="black" stroke-width="0.2577" stroke-miterlimit="10" stroke-linecap="round"></path> <path d="M3.60399 91.7461L2.10156 90.444" stroke="black" stroke-width="0.2577" stroke-miterlimit="10" stroke-linecap="round"></path> <path d="M46.5737 123.998L45.0713 122.696" stroke="black" stroke-width="0.2577" stroke-miterlimit="10" stroke-linecap="round"></path> <path d="M35.8559 113.181L34.3535 111.879" stroke="black" stroke-width="0.2577" stroke-miterlimit="10" stroke-linecap="round"></path> <path d="M25.1387 102.463L23.6362 101.161" stroke="black" stroke-width="0.2577" stroke-miterlimit="10" stroke-linecap="round"></path> <path d="M14.3213 91.7461L12.8188 90.444" stroke="black" stroke-width="0.2577" stroke-miterlimit="10" stroke-linecap="round"></path> <path d="M3.60399 80.9287L2.10156 79.6266" stroke="black" stroke-width="0.2577" stroke-miterlimit="10" stroke-linecap="round"></path> <path d="M57.3906 123.998L55.8882 122.696" stroke="black" stroke-width="0.2577" stroke-miterlimit="10" stroke-linecap="round"></path> <path d="M46.5737 113.181L45.0713 111.879" stroke="black" stroke-width="0.2577" stroke-miterlimit="10" stroke-linecap="round"></path> <path d="M35.8559 102.463L34.3535 101.161" stroke="black" stroke-width="0.2577" stroke-miterlimit="10" stroke-linecap="round"></path> <path d="M25.1387 91.7461L23.6362 90.444" stroke="black" stroke-width="0.2577" stroke-miterlimit="10" stroke-linecap="round"></path> <path d="M14.3213 80.9287L12.8188 79.6266" stroke="black" stroke-width="0.2577" stroke-miterlimit="10" stroke-linecap="round"></path> <path d="M3.60399 70.2114L2.10156 68.9093" stroke="black" stroke-width="0.2577" stroke-miterlimit="10" stroke-linecap="round"></path> <path d="M57.3906 113.181L55.8882 111.879" stroke="black" stroke-width="0.2577" stroke-miterlimit="10" stroke-linecap="round"></path> <path d="M46.5737 102.463L45.0713 101.161" stroke="black" stroke-width="0.2577" stroke-miterlimit="10" stroke-linecap="round"></path> <path d="M35.8559 91.7461L34.3535 90.444" stroke="black" stroke-width="0.2577" stroke-miterlimit="10" stroke-linecap="round"></path> <path d="M25.1387 80.9287L23.6362 79.6266" stroke="black" stroke-width="0.2577" stroke-miterlimit="10" stroke-linecap="round"></path> <path d="M14.3213 70.2114L12.8188 68.9093" stroke="black" stroke-width="0.2577" stroke-miterlimit="10" stroke-linecap="round"></path> <path d="M57.3906 102.463L55.8882 101.161" stroke="black" stroke-width="0.2577" stroke-miterlimit="10" stroke-linecap="round"></path> <path d="M46.5737 91.7461L45.0713 90.444" stroke="black" stroke-width="0.2577" stroke-miterlimit="10" stroke-linecap="round"></path> <path d="M35.8559 80.9287L34.3535 79.6266" stroke="black" stroke-width="0.2577" stroke-miterlimit="10" stroke-linecap="round"></path> <path d="M25.1387 70.2114L23.6362 68.9093" stroke="black" stroke-width="0.2577" stroke-miterlimit="10" stroke-linecap="round"></path> <path d="M57.3906 91.7461L55.8882 90.444" stroke="black" stroke-width="0.2577" stroke-miterlimit="10" stroke-linecap="round"></path> <path d="M46.5737 80.9287L45.0713 79.6266" stroke="black" stroke-width="0.2577" stroke-miterlimit="10" stroke-linecap="round"></path> <path d="M35.8559 70.2114L34.3535 68.9093" stroke="black" stroke-width="0.2577" stroke-miterlimit="10" stroke-linecap="round"></path> <path d="M57.3906 80.9287L55.8882 79.6266" stroke="black" stroke-width="0.2577" stroke-miterlimit="10" stroke-linecap="round"></path> <path d="M46.5737 70.2114L45.0713 68.9093" stroke="black" stroke-width="0.2577" stroke-miterlimit="10" stroke-linecap="round"></path> <path d="M57.3906 70.2114L55.8882 68.9093" stroke="black" stroke-width="0.2577" stroke-miterlimit="10" stroke-linecap="round"></path> <path d="M2.10175 122.696L1 121.594" stroke="black" stroke-width="0.2577" stroke-miterlimit="10" stroke-linecap="round"></path> <path d="M12.8191 122.696L9.41357 119.491" stroke="black" stroke-width="0.2577" stroke-miterlimit="10" stroke-linecap="round"></path> <path d="M2.10175 111.879L1 110.877" stroke="black" stroke-width="0.2577" stroke-miterlimit="10" stroke-linecap="round"></path> <path d="M23.636 122.696L20.1304 119.491" stroke="black" stroke-width="0.2577" stroke-miterlimit="10" stroke-linecap="round"></path> <path d="M12.8191 111.879L9.41357 108.673" stroke="black" stroke-width="0.2577" stroke-miterlimit="10" stroke-linecap="round"></path> <path d="M2.10175 101.161L1 100.06" stroke="black" stroke-width="0.2577" stroke-miterlimit="10" stroke-linecap="round"></path> <path d="M34.3537 122.696L30.9482 119.491" stroke="black" stroke-width="0.2577" stroke-miterlimit="10" stroke-linecap="round"></path> <path d="M23.636 111.879L20.1304 108.673" stroke="black" stroke-width="0.2577" stroke-miterlimit="10" stroke-linecap="round"></path> <path d="M12.8191 101.161L9.41357 97.9561" stroke="black" stroke-width="0.2577" stroke-miterlimit="10" stroke-linecap="round"></path> <path d="M2.10175 90.4441L1 89.3423" stroke="black" stroke-width="0.2577" stroke-miterlimit="10" stroke-linecap="round"></path> <path d="M45.0706 122.696L41.665 119.491" stroke="black" stroke-width="0.2577" stroke-miterlimit="10" stroke-linecap="round"></path> <path d="M34.3537 111.879L30.9482 108.673" stroke="black" stroke-width="0.2577" stroke-miterlimit="10" stroke-linecap="round"></path> <path d="M23.636 101.161L20.1304 97.9561" stroke="black" stroke-width="0.2577" stroke-miterlimit="10" stroke-linecap="round"></path> <path d="M12.8191 90.4441L9.41357 87.2389" stroke="black" stroke-width="0.2577" stroke-miterlimit="10" stroke-linecap="round"></path> <path d="M2.10175 79.6266L1 78.625" stroke="black" stroke-width="0.2577" stroke-miterlimit="10" stroke-linecap="round"></path> <path d="M55.8885 122.696L52.3828 119.491" stroke="black" stroke-width="0.2577" stroke-miterlimit="10" stroke-linecap="round"></path> <path d="M45.0706 111.879L41.665 108.673" stroke="black" stroke-width="0.2577" stroke-miterlimit="10" stroke-linecap="round"></path> <path d="M34.3537 101.161L30.9482 97.9561" stroke="black" stroke-width="0.2577" stroke-miterlimit="10" stroke-linecap="round"></path> <path d="M23.636 90.4441L20.1304 87.2389" stroke="black" stroke-width="0.2577" stroke-miterlimit="10" stroke-linecap="round"></path> <path d="M12.8191 79.6266L9.41357 76.4214" stroke="black" stroke-width="0.2577" stroke-miterlimit="10" stroke-linecap="round"></path> <path d="M2.10175 68.9093L1 67.8075" stroke="black" stroke-width="0.2577" stroke-miterlimit="10" stroke-linecap="round"></path> <path d="M55.8885 111.879L52.3828 108.673" stroke="black" stroke-width="0.2577" stroke-miterlimit="10" stroke-linecap="round"></path> <path d="M45.0706 101.161L41.665 97.9561" stroke="black" stroke-width="0.2577" stroke-miterlimit="10" stroke-linecap="round"></path> <path d="M34.3537 90.4441L30.9482 87.2389" stroke="black" stroke-width="0.2577" stroke-miterlimit="10" stroke-linecap="round"></path> <path d="M23.636 79.6266L20.1304 76.4214" stroke="black" stroke-width="0.2577" stroke-miterlimit="10" stroke-linecap="round"></path> <path d="M12.8191 68.9093L9.41357 65.7041" stroke="black" stroke-width="0.2577" stroke-miterlimit="10" stroke-linecap="round"></path> <path d="M55.8885 101.161L52.3828 97.9561" stroke="black" stroke-width="0.2577" stroke-miterlimit="10" stroke-linecap="round"></path> <path d="M45.0706 90.4441L41.665 87.2389" stroke="black" stroke-width="0.2577" stroke-miterlimit="10" stroke-linecap="round"></path> <path d="M34.3537 79.6266L30.9482 76.4214" stroke="black" stroke-width="0.2577" stroke-miterlimit="10" stroke-linecap="round"></path> <path d="M23.636 68.9093L20.1304 65.7041" stroke="black" stroke-width="0.2577" stroke-miterlimit="10" stroke-linecap="round"></path> <path d="M55.8885 90.4441L52.3828 87.2389" stroke="black" stroke-width="0.2577" stroke-miterlimit="10" stroke-linecap="round"></path> <path d="M45.0706 79.6266L41.665 76.4214" stroke="black" stroke-width="0.2577" stroke-miterlimit="10" stroke-linecap="round"></path> <path d="M34.3537 68.9093L30.9482 65.7041" stroke="black" stroke-width="0.2577" stroke-miterlimit="10" stroke-linecap="round"></path> <path d="M55.8885 79.6266L52.3828 76.4214" stroke="black" stroke-width="0.2577" stroke-miterlimit="10" stroke-linecap="round"></path> <path d="M45.0706 68.9093L41.665 65.7041" stroke="black" stroke-width="0.2577" stroke-miterlimit="10" stroke-linecap="round"></path> <path d="M55.8885 68.9093L52.3828 65.7041" stroke="black" stroke-width="0.2577" stroke-miterlimit="10" stroke-linecap="round"></path> <path d="M9.41313 119.491L8.61182 117.087" stroke="black" stroke-width="0.2577" stroke-miterlimit="10" stroke-linecap="round"></path> <path d="M9.41313 108.673L8.61182 106.37" stroke="black" stroke-width="0.2577" stroke-miterlimit="10" stroke-linecap="round"></path> <path d="M9.41313 97.9562L8.61182 95.5524" stroke="black" stroke-width="0.2577" stroke-miterlimit="10" stroke-linecap="round"></path> <path d="M20.231 119.491L19.3296 117.087" stroke="black" stroke-width="0.2577" stroke-miterlimit="10" stroke-linecap="round"></path> <path d="M9.41313 87.2388L8.61182 84.835" stroke="black" stroke-width="0.2577" stroke-miterlimit="10" stroke-linecap="round"></path> <path d="M20.231 108.673L19.3296 106.37" stroke="black" stroke-width="0.2577" stroke-miterlimit="10" stroke-linecap="round"></path> <path d="M9.41313 76.4215L8.61182 74.1178" stroke="black" stroke-width="0.2577" stroke-miterlimit="10" stroke-linecap="round"></path> <path d="M20.231 97.9562L19.3296 95.5524" stroke="black" stroke-width="0.2577" stroke-miterlimit="10" stroke-linecap="round"></path> <path d="M9.41313 65.7042L8.61182 63.3003" stroke="black" stroke-width="0.2577" stroke-miterlimit="10" stroke-linecap="round"></path> <path d="M30.9483 119.491L30.0469 117.087" stroke="black" stroke-width="0.2577" stroke-miterlimit="10" stroke-linecap="round"></path> <path d="M20.231 87.2388L19.3296 84.835" stroke="black" stroke-width="0.2577" stroke-miterlimit="10" stroke-linecap="round"></path> <path d="M30.9483 108.673L30.0469 106.37" stroke="black" stroke-width="0.2577" stroke-miterlimit="10" stroke-linecap="round"></path> <path d="M20.231 76.4215L19.3296 74.1178" stroke="black" stroke-width="0.2577" stroke-miterlimit="10" stroke-linecap="round"></path> <path d="M30.9483 97.9562L30.0469 95.5524" stroke="black" stroke-width="0.2577" stroke-miterlimit="10" stroke-linecap="round"></path> <path d="M20.231 65.7042L19.3296 63.3003" stroke="black" stroke-width="0.2577" stroke-miterlimit="10" stroke-linecap="round"></path> <path d="M41.6655 119.491L40.8643 117.087" stroke="black" stroke-width="0.2577" stroke-miterlimit="10" stroke-linecap="round"></path> <path d="M30.9483 87.2388L30.0469 84.835" stroke="black" stroke-width="0.2577" stroke-miterlimit="10" stroke-linecap="round"></path> <path d="M41.6655 108.673L40.8643 106.37" stroke="black" stroke-width="0.2577" stroke-miterlimit="10" stroke-linecap="round"></path> <path d="M30.9483 76.4215L30.0469 74.1178" stroke="black" stroke-width="0.2577" stroke-miterlimit="10" stroke-linecap="round"></path> <path d="M41.6655 97.9562L40.8643 95.5524" stroke="black" stroke-width="0.2577" stroke-miterlimit="10" stroke-linecap="round"></path> <path d="M30.9483 65.7042L30.0469 63.3003" stroke="black" stroke-width="0.2577" stroke-miterlimit="10" stroke-linecap="round"></path> <path d="M52.483 119.491L51.5815 117.087" stroke="black" stroke-width="0.2577" stroke-miterlimit="10" stroke-linecap="round"></path> <path d="M41.6655 87.2388L40.8643 84.835" stroke="black" stroke-width="0.2577" stroke-miterlimit="10" stroke-linecap="round"></path> <path d="M52.483 108.673L51.5815 106.37" stroke="black" stroke-width="0.2577" stroke-miterlimit="10" stroke-linecap="round"></path> <path d="M41.6655 76.4215L40.8643 74.1178" stroke="black" stroke-width="0.2577" stroke-miterlimit="10" stroke-linecap="round"></path> <path d="M52.483 97.9562L51.5815 95.5524" stroke="black" stroke-width="0.2577" stroke-miterlimit="10" stroke-linecap="round"></path> <path d="M41.6655 65.7042L40.8643 63.3003" stroke="black" stroke-width="0.2577" stroke-miterlimit="10" stroke-linecap="round"></path> <path d="M62.8993 118.69L62.2983 117.087" stroke="black" stroke-width="0.2577" stroke-miterlimit="10" stroke-linecap="round"></path> <path d="M52.483 87.2388L51.5815 84.835" stroke="black" stroke-width="0.2577" stroke-miterlimit="10" stroke-linecap="round"></path> <path d="M62.8993 107.972L62.2983 106.37" stroke="black" stroke-width="0.2577" stroke-miterlimit="10" stroke-linecap="round"></path> <path d="M52.483 76.4215L51.5815 74.1178" stroke="black" stroke-width="0.2577" stroke-miterlimit="10" stroke-linecap="round"></path> <path d="M62.8993 97.2551L62.2983 95.5524" stroke="black" stroke-width="0.2577" stroke-miterlimit="10" stroke-linecap="round"></path> <path d="M52.483 65.7042L51.5815 63.3003" stroke="black" stroke-width="0.2577" stroke-miterlimit="10" stroke-linecap="round"></path> <path d="M62.8993 86.4375L62.2983 84.835" stroke="black" stroke-width="0.2577" stroke-miterlimit="10" stroke-linecap="round"></path> <path d="M62.8993 75.7204L62.2983 74.1178" stroke="black" stroke-width="0.2577" stroke-miterlimit="10" stroke-linecap="round"></path> <path d="M62.8993 65.003L62.2983 63.3003" stroke="black" stroke-width="0.2577" stroke-miterlimit="10" stroke-linecap="round"></path> <path d="M8.61182 117.087V114.984" stroke="black" stroke-width="0.2577" stroke-miterlimit="10" stroke-linecap="round"></path> <path d="M8.61182 106.37V104.166" stroke="black" stroke-width="0.2577" stroke-miterlimit="10" stroke-linecap="round"></path> <path d="M8.61182 95.5522V93.4489" stroke="black" stroke-width="0.2577" stroke-miterlimit="10" stroke-linecap="round"></path> <path d="M8.61182 84.835V82.7316" stroke="black" stroke-width="0.2577" stroke-miterlimit="10" stroke-linecap="round"></path> <path d="M8.61182 74.1176V71.9141" stroke="black" stroke-width="0.2577" stroke-miterlimit="10" stroke-linecap="round"></path> <path d="M19.3296 117.087V114.984" stroke="black" stroke-width="0.2577" stroke-miterlimit="10" stroke-linecap="round"></path> <path d="M19.3296 106.37V104.166" stroke="black" stroke-width="0.2577" stroke-miterlimit="10" stroke-linecap="round"></path> <path d="M19.3296 95.5522V93.4489" stroke="black" stroke-width="0.2577" stroke-miterlimit="10" stroke-linecap="round"></path> <path d="M19.3296 84.835V82.7316" stroke="black" stroke-width="0.2577" stroke-miterlimit="10" stroke-linecap="round"></path> <path d="M19.3296 74.1176V71.9141" stroke="black" stroke-width="0.2577" stroke-miterlimit="10" stroke-linecap="round"></path> <path d="M30.0469 117.087V114.984" stroke="black" stroke-width="0.2577" stroke-miterlimit="10" stroke-linecap="round"></path> <path d="M30.0469 106.37V104.166" stroke="black" stroke-width="0.2577" stroke-miterlimit="10" stroke-linecap="round"></path> <path d="M30.0469 95.5522V93.4489" stroke="black" stroke-width="0.2577" stroke-miterlimit="10" stroke-linecap="round"></path> <path d="M30.0469 84.835V82.7316" stroke="black" stroke-width="0.2577" stroke-miterlimit="10" stroke-linecap="round"></path> <path d="M30.0469 74.1176V71.9141" stroke="black" stroke-width="0.2577" stroke-miterlimit="10" stroke-linecap="round"></path> <path d="M40.8643 117.087V114.984" stroke="black" stroke-width="0.2577" stroke-miterlimit="10" stroke-linecap="round"></path> <path d="M40.8643 106.37V104.166" stroke="black" stroke-width="0.2577" stroke-miterlimit="10" stroke-linecap="round"></path> <path d="M40.8643 95.5522V93.4489" stroke="black" stroke-width="0.2577" stroke-miterlimit="10" stroke-linecap="round"></path> <path d="M40.8643 84.835V82.7316" stroke="black" stroke-width="0.2577" stroke-miterlimit="10" stroke-linecap="round"></path> <path d="M40.8643 74.1176V71.9141" stroke="black" stroke-width="0.2577" stroke-miterlimit="10" stroke-linecap="round"></path> <path d="M51.5815 117.087V114.984" stroke="black" stroke-width="0.2577" stroke-miterlimit="10" stroke-linecap="round"></path> <path d="M51.5815 106.37V104.166" stroke="black" stroke-width="0.2577" stroke-miterlimit="10" stroke-linecap="round"></path> <path d="M51.5815 95.5522V93.4489" stroke="black" stroke-width="0.2577" stroke-miterlimit="10" stroke-linecap="round"></path> <path d="M51.5815 84.835V82.7316" stroke="black" stroke-width="0.2577" stroke-miterlimit="10" stroke-linecap="round"></path> <path d="M51.5815 74.1176V71.9141" stroke="black" stroke-width="0.2577" stroke-miterlimit="10" stroke-linecap="round"></path> <path d="M62.2983 117.087V114.984" stroke="black" stroke-width="0.2577" stroke-miterlimit="10" stroke-linecap="round"></path> <path d="M62.2983 106.37V104.166" stroke="black" stroke-width="0.2577" stroke-miterlimit="10" stroke-linecap="round"></path> <path d="M62.2983 95.5522V93.4489" stroke="black" stroke-width="0.2577" stroke-miterlimit="10" stroke-linecap="round"></path> <path d="M62.2983 84.835V82.7316" stroke="black" stroke-width="0.2577" stroke-miterlimit="10" stroke-linecap="round"></path> <path d="M62.2983 74.1176V71.9141" stroke="black" stroke-width="0.2577" stroke-miterlimit="10" stroke-linecap="round"></path> <path d="M8.21156 125.1L5.70752 120.492" stroke="black" stroke-width="0.2577" stroke-miterlimit="10" stroke-linecap="round"></path> <path d="M8.51206 114.884L5.70752 109.775" stroke="black" stroke-width="0.2577" stroke-miterlimit="10" stroke-linecap="round"></path> <path d="M19.0289 125.1L16.5249 120.492" stroke="black" stroke-width="0.2577" stroke-miterlimit="10" stroke-linecap="round"></path> <path d="M8.51206 104.166L5.70752 98.9578" stroke="black" stroke-width="0.2577" stroke-miterlimit="10" stroke-linecap="round"></path> <path d="M19.3294 114.883L16.5249 109.675" stroke="black" stroke-width="0.2577" stroke-miterlimit="10" stroke-linecap="round"></path> <path d="M8.51206 93.3487L5.70752 88.2405" stroke="black" stroke-width="0.2577" stroke-miterlimit="10" stroke-linecap="round"></path> <path d="M29.7462 125.1L27.2422 120.492" stroke="black" stroke-width="0.2577" stroke-miterlimit="10" stroke-linecap="round"></path> <path d="M19.3294 104.166L16.5249 98.9578" stroke="black" stroke-width="0.2577" stroke-miterlimit="10" stroke-linecap="round"></path> <path d="M8.51206 82.6314L5.70752 77.423" stroke="black" stroke-width="0.2577" stroke-miterlimit="10" stroke-linecap="round"></path> <path d="M30.0467 114.883L27.2422 109.675" stroke="black" stroke-width="0.2577" stroke-miterlimit="10" stroke-linecap="round"></path> <path d="M19.3294 93.3487L16.5249 88.2405" stroke="black" stroke-width="0.2577" stroke-miterlimit="10" stroke-linecap="round"></path> <path d="M8.51206 71.9142L5.70752 66.7058" stroke="black" stroke-width="0.2577" stroke-miterlimit="10" stroke-linecap="round"></path> <path d="M40.4635 125.1L37.9595 120.492" stroke="black" stroke-width="0.2577" stroke-miterlimit="10" stroke-linecap="round"></path> <path d="M30.0467 104.166L27.2422 98.9578" stroke="black" stroke-width="0.2577" stroke-miterlimit="10" stroke-linecap="round"></path> <path d="M19.3294 82.6314L16.5249 77.423" stroke="black" stroke-width="0.2577" stroke-miterlimit="10" stroke-linecap="round"></path> <path d="M40.764 114.883L37.9595 109.675" stroke="black" stroke-width="0.2577" stroke-miterlimit="10" stroke-linecap="round"></path> <path d="M30.0467 93.3487L27.2422 88.2405" stroke="black" stroke-width="0.2577" stroke-miterlimit="10" stroke-linecap="round"></path> <path d="M19.3294 71.9142L16.5249 66.7058" stroke="black" stroke-width="0.2577" stroke-miterlimit="10" stroke-linecap="round"></path> <path d="M51.2809 125.1L48.7769 120.492" stroke="black" stroke-width="0.2577" stroke-miterlimit="10" stroke-linecap="round"></path> <path d="M40.764 104.166L37.9595 98.9578" stroke="black" stroke-width="0.2577" stroke-miterlimit="10" stroke-linecap="round"></path> <path d="M30.0467 82.6314L27.2422 77.423" stroke="black" stroke-width="0.2577" stroke-miterlimit="10" stroke-linecap="round"></path> <path d="M51.5814 114.883L48.7769 109.675" stroke="black" stroke-width="0.2577" stroke-miterlimit="10" stroke-linecap="round"></path> <path d="M40.764 93.3487L37.9595 88.2405" stroke="black" stroke-width="0.2577" stroke-miterlimit="10" stroke-linecap="round"></path> <path d="M30.0467 71.9142L27.2422 66.7058" stroke="black" stroke-width="0.2577" stroke-miterlimit="10" stroke-linecap="round"></path> <path d="M61.9982 125.1L59.4941 120.492" stroke="black" stroke-width="0.2577" stroke-miterlimit="10" stroke-linecap="round"></path> <path d="M51.5814 104.166L48.7769 98.9578" stroke="black" stroke-width="0.2577" stroke-miterlimit="10" stroke-linecap="round"></path> <path d="M40.764 82.6314L37.9595 77.423" stroke="black" stroke-width="0.2577" stroke-miterlimit="10" stroke-linecap="round"></path> <path d="M62.2987 114.883L59.4941 109.675" stroke="black" stroke-width="0.2577" stroke-miterlimit="10" stroke-linecap="round"></path> <path d="M51.5814 93.3487L48.7769 88.2405" stroke="black" stroke-width="0.2577" stroke-miterlimit="10" stroke-linecap="round"></path> <path d="M40.764 71.9142L37.9595 66.7058" stroke="black" stroke-width="0.2577" stroke-miterlimit="10" stroke-linecap="round"></path> <path d="M62.2987 104.166L59.4941 98.9578" stroke="black" stroke-width="0.2577" stroke-miterlimit="10" stroke-linecap="round"></path> <path d="M51.5814 82.6314L48.7769 77.423" stroke="black" stroke-width="0.2577" stroke-miterlimit="10" stroke-linecap="round"></path> <path d="M62.2987 93.3487L59.4941 88.2405" stroke="black" stroke-width="0.2577" stroke-miterlimit="10" stroke-linecap="round"></path> <path d="M51.5814 71.9142L48.7769 66.7058" stroke="black" stroke-width="0.2577" stroke-miterlimit="10" stroke-linecap="round"></path> <path d="M62.2987 82.6314L59.4941 77.423" stroke="black" stroke-width="0.2577" stroke-miterlimit="10" stroke-linecap="round"></path> <path d="M62.2987 71.9142L59.4941 66.7058" stroke="black" stroke-width="0.2577" stroke-miterlimit="10" stroke-linecap="round"></path> <path d="M5.80762 66.806L6.00795 64.6024" stroke="black" stroke-width="0.2577" stroke-miterlimit="10" stroke-linecap="round"></path> <path d="M5.80762 77.5232L6.00795 75.4198" stroke="black" stroke-width="0.2577" stroke-miterlimit="10" stroke-linecap="round"></path> <path d="M5.80762 88.2405L6.00795 86.1371" stroke="black" stroke-width="0.2577" stroke-miterlimit="10" stroke-linecap="round"></path> <path d="M5.80762 99.0579L6.00795 96.8544" stroke="black" stroke-width="0.2577" stroke-miterlimit="10" stroke-linecap="round"></path> <path d="M5.80762 109.775L6.00795 107.672" stroke="black" stroke-width="0.2577" stroke-miterlimit="10" stroke-linecap="round"></path> <path d="M5.80762 120.492L6.00795 118.389" stroke="black" stroke-width="0.2577" stroke-miterlimit="10" stroke-linecap="round"></path> <path d="M16.5249 66.806L16.7252 64.6024" stroke="black" stroke-width="0.2577" stroke-miterlimit="10" stroke-linecap="round"></path> <path d="M16.5249 77.5232L16.7252 75.4198" stroke="black" stroke-width="0.2577" stroke-miterlimit="10" stroke-linecap="round"></path> <path d="M16.5249 88.2405L16.7252 86.1371" stroke="black" stroke-width="0.2577" stroke-miterlimit="10" stroke-linecap="round"></path> <path d="M16.5249 99.0579L16.7252 96.8544" stroke="black" stroke-width="0.2577" stroke-miterlimit="10" stroke-linecap="round"></path> <path d="M16.5249 109.775L16.7252 107.672" stroke="black" stroke-width="0.2577" stroke-miterlimit="10" stroke-linecap="round"></path> <path d="M16.5249 120.492L16.7252 118.389" stroke="black" stroke-width="0.2577" stroke-miterlimit="10" stroke-linecap="round"></path> <path d="M27.2422 66.806L27.5427 64.6024" stroke="black" stroke-width="0.2577" stroke-miterlimit="10" stroke-linecap="round"></path> <path d="M27.2422 77.5232L27.5427 75.4198" stroke="black" stroke-width="0.2577" stroke-miterlimit="10" stroke-linecap="round"></path> <path d="M27.2422 88.2405L27.5427 86.1371" stroke="black" stroke-width="0.2577" stroke-miterlimit="10" stroke-linecap="round"></path> <path d="M27.2422 99.0579L27.5427 96.8544" stroke="black" stroke-width="0.2577" stroke-miterlimit="10" stroke-linecap="round"></path> <path d="M27.2422 109.775L27.5427 107.672" stroke="black" stroke-width="0.2577" stroke-miterlimit="10" stroke-linecap="round"></path> <path d="M27.2422 120.492L27.5427 118.389" stroke="black" stroke-width="0.2577" stroke-miterlimit="10" stroke-linecap="round"></path> <path d="M38.0596 66.806L38.2599 64.6024" stroke="black" stroke-width="0.2577" stroke-miterlimit="10" stroke-linecap="round"></path> <path d="M38.0596 77.5232L38.2599 75.4198" stroke="black" stroke-width="0.2577" stroke-miterlimit="10" stroke-linecap="round"></path> <path d="M38.0596 88.2405L38.2599 86.1371" stroke="black" stroke-width="0.2577" stroke-miterlimit="10" stroke-linecap="round"></path> <path d="M38.0596 99.0579L38.2599 96.8544" stroke="black" stroke-width="0.2577" stroke-miterlimit="10" stroke-linecap="round"></path> <path d="M38.0596 109.775L38.2599 107.672" stroke="black" stroke-width="0.2577" stroke-miterlimit="10" stroke-linecap="round"></path> <path d="M38.0596 120.593L38.2599 118.389" stroke="black" stroke-width="0.2577" stroke-miterlimit="10" stroke-linecap="round"></path> <path d="M48.7769 66.806L48.9772 64.6024" stroke="black" stroke-width="0.2577" stroke-miterlimit="10" stroke-linecap="round"></path> <path d="M48.7769 77.5232L48.9772 75.4198" stroke="black" stroke-width="0.2577" stroke-miterlimit="10" stroke-linecap="round"></path> <path d="M48.7769 88.2405L48.9772 86.1371" stroke="black" stroke-width="0.2577" stroke-miterlimit="10" stroke-linecap="round"></path> <path d="M48.7769 99.0579L48.9772 96.8544" stroke="black" stroke-width="0.2577" stroke-miterlimit="10" stroke-linecap="round"></path> <path d="M48.7769 109.775L48.9772 107.672" stroke="black" stroke-width="0.2577" stroke-miterlimit="10" stroke-linecap="round"></path> <path d="M48.7769 120.593L48.9772 118.389" stroke="black" stroke-width="0.2577" stroke-miterlimit="10" stroke-linecap="round"></path> <path d="M59.4941 66.806L59.7946 64.6024" stroke="black" stroke-width="0.2577" stroke-miterlimit="10" stroke-linecap="round"></path> <path d="M59.4941 77.5232L59.7946 75.4198" stroke="black" stroke-width="0.2577" stroke-miterlimit="10" stroke-linecap="round"></path> <path d="M59.4941 88.2405L59.7946 86.1371" stroke="black" stroke-width="0.2577" stroke-miterlimit="10" stroke-linecap="round"></path> <path d="M59.4941 99.0579L59.7946 96.8544" stroke="black" stroke-width="0.2577" stroke-miterlimit="10" stroke-linecap="round"></path> <path d="M59.4941 109.775L59.7946 107.672" stroke="black" stroke-width="0.2577" stroke-miterlimit="10" stroke-linecap="round"></path> <path d="M59.4941 120.593L59.7946 118.389" stroke="black" stroke-width="0.2577" stroke-miterlimit="10" stroke-linecap="round"></path> <path d="M6.00803 118.389L4.90625 117.087" stroke="black" stroke-width="0.2577" stroke-miterlimit="10" stroke-linecap="round"></path> <path d="M6.00803 107.672L4.90625 106.37" stroke="black" stroke-width="0.2577" stroke-miterlimit="10" stroke-linecap="round"></path> <path d="M16.7252 118.389L15.7236 117.087" stroke="black" stroke-width="0.2577" stroke-miterlimit="10" stroke-linecap="round"></path> <path d="M6.00803 96.8544L4.90625 95.6525" stroke="black" stroke-width="0.2577" stroke-miterlimit="10" stroke-linecap="round"></path> <path d="M16.7252 107.672L15.7236 106.37" stroke="black" stroke-width="0.2577" stroke-miterlimit="10" stroke-linecap="round"></path> <path d="M27.5427 118.389L26.4409 117.087" stroke="black" stroke-width="0.2577" stroke-miterlimit="10" stroke-linecap="round"></path> <path d="M6.00803 86.1371L4.90625 84.835" stroke="black" stroke-width="0.2577" stroke-miterlimit="10" stroke-linecap="round"></path> <path d="M16.7252 96.8544L15.7236 95.6525" stroke="black" stroke-width="0.2577" stroke-miterlimit="10" stroke-linecap="round"></path> <path d="M27.5427 107.672L26.4409 106.37" stroke="black" stroke-width="0.2577" stroke-miterlimit="10" stroke-linecap="round"></path> <path d="M38.2595 118.389L37.1577 117.087" stroke="black" stroke-width="0.2577" stroke-miterlimit="10" stroke-linecap="round"></path> <path d="M6.00803 75.4199L4.90625 74.1178" stroke="black" stroke-width="0.2577" stroke-miterlimit="10" stroke-linecap="round"></path> <path d="M16.7252 86.1371L15.7236 84.835" stroke="black" stroke-width="0.2577" stroke-miterlimit="10" stroke-linecap="round"></path> <path d="M27.5427 96.8544L26.4409 95.6525" stroke="black" stroke-width="0.2577" stroke-miterlimit="10" stroke-linecap="round"></path> <path d="M38.2595 107.672L37.1577 106.37" stroke="black" stroke-width="0.2577" stroke-miterlimit="10" stroke-linecap="round"></path> <path d="M48.9772 118.389L47.9756 117.087" stroke="black" stroke-width="0.2577" stroke-miterlimit="10" stroke-linecap="round"></path> <path d="M6.00803 64.6023L4.90625 63.4004" stroke="black" stroke-width="0.2577" stroke-miterlimit="10" stroke-linecap="round"></path> <path d="M16.7252 75.4199L15.7236 74.1178" stroke="black" stroke-width="0.2577" stroke-miterlimit="10" stroke-linecap="round"></path> <path d="M27.5427 86.1371L26.4409 84.835" stroke="black" stroke-width="0.2577" stroke-miterlimit="10" stroke-linecap="round"></path> <path d="M38.2595 96.8544L37.1577 95.6525" stroke="black" stroke-width="0.2577" stroke-miterlimit="10" stroke-linecap="round"></path> <path d="M48.9772 107.672L47.9756 106.37" stroke="black" stroke-width="0.2577" stroke-miterlimit="10" stroke-linecap="round"></path> <path d="M59.7947 118.389L58.6929 117.087" stroke="black" stroke-width="0.2577" stroke-miterlimit="10" stroke-linecap="round"></path> <path d="M16.7252 64.6023L15.7236 63.4004" stroke="black" stroke-width="0.2577" stroke-miterlimit="10" stroke-linecap="round"></path> <path d="M27.5427 75.4199L26.4409 74.1178" stroke="black" stroke-width="0.2577" stroke-miterlimit="10" stroke-linecap="round"></path> <path d="M38.2595 86.1371L37.1577 84.835" stroke="black" stroke-width="0.2577" stroke-miterlimit="10" stroke-linecap="round"></path> <path d="M48.9772 96.8544L47.9756 95.6525" stroke="black" stroke-width="0.2577" stroke-miterlimit="10" stroke-linecap="round"></path> <path d="M59.7947 107.672L58.6929 106.37" stroke="black" stroke-width="0.2577" stroke-miterlimit="10" stroke-linecap="round"></path> <path d="M27.5427 64.6023L26.4409 63.4004" stroke="black" stroke-width="0.2577" stroke-miterlimit="10" stroke-linecap="round"></path> <path d="M38.2595 75.4199L37.1577 74.1178" stroke="black" stroke-width="0.2577" stroke-miterlimit="10" stroke-linecap="round"></path> <path d="M48.9772 86.1371L47.9756 84.835" stroke="black" stroke-width="0.2577" stroke-miterlimit="10" stroke-linecap="round"></path> <path d="M59.7947 96.8544L58.6929 95.6525" stroke="black" stroke-width="0.2577" stroke-miterlimit="10" stroke-linecap="round"></path> <path d="M38.2595 64.6023L37.1577 63.4004" stroke="black" stroke-width="0.2577" stroke-miterlimit="10" stroke-linecap="round"></path> <path d="M48.9772 75.4199L47.9756 74.1178" stroke="black" stroke-width="0.2577" stroke-miterlimit="10" stroke-linecap="round"></path> <path d="M59.7947 86.1371L58.6929 84.835" stroke="black" stroke-width="0.2577" stroke-miterlimit="10" stroke-linecap="round"></path> <path d="M48.9772 64.6023L47.9756 63.4004" stroke="black" stroke-width="0.2577" stroke-miterlimit="10" stroke-linecap="round"></path> <path d="M59.7947 75.4199L58.6929 74.1178" stroke="black" stroke-width="0.2577" stroke-miterlimit="10" stroke-linecap="round"></path> <path d="M59.7947 64.6023L58.6929 63.4004" stroke="black" stroke-width="0.2577" stroke-miterlimit="10" stroke-linecap="round"></path> <path d="M1 63.1V125.1" stroke="black" stroke-width="0.5154" stroke-miterlimit="10" stroke-linecap="round"></path> <path d="M1 125.1H62.8998" stroke="black" stroke-width="0.5154" stroke-miterlimit="10" stroke-linecap="round"></path> <path d="M62.8994 125.1L63 63.1" stroke="black" stroke-width="0.5154" stroke-miterlimit="10" stroke-linecap="round"></path> <path d="M63 63.1L1 63" stroke="black" stroke-width="0.5154" stroke-miterlimit="10" stroke-linecap="round"></path> </svg> 